<svg version="1.1" viewBox="0.0 0.0 264.56692913385825 264.56692913385825" fill="none" stroke="none" stroke-linecap="square" stroke-miterlimit="10" xmlns:xlink="http://www.w3.org/1999/xlink" xmlns="http://www.w3.org/2000/svg"><clipPath id="g1dcc71fafc4_0_0.0"><path d="m0 0l264.56693 0l0 264.56693l-264.56693 0l0 -264.56693z" clip-rule="nonzero"/></clipPath><g clip-path="url(#g1dcc71fafc4_0_0.0)"><defs><linearGradient id="g1dcc71fafc4_0_0.1" gradientUnits="userSpaceOnUse" gradientTransform="matrix(-11.936971708782643 3.585209287540861 3.585209287540861 11.936971708782643 0.0 0.0)" spreadMethod="pad" x1="-5.330685723744717" y1="12.311906267541378" x2="-17.267657432214875" y2="12.311819895001335"><stop offset="0.0" stop-color="#FFFFFF"/><stop offset="1.0" stop-color="#FFFFFF"/></linearGradient></defs><path fill="url(#g1dcc71fafc4_0_0.1)" d="m258.15112 116.19588l0 0c-12.344543 -14.797195 -51.011353 -18.184937 -86.36473 -7.5667267q-32.00647 9.612984 -64.01294 19.225967q11.175888 13.396347 22.351776 26.792694l0 0c12.344543 14.797195 51.011353 18.184937 86.36473 7.5667267l0 0c35.353363 -10.61821 54.005707 -31.221466 41.661163 -46.01866z" fill-rule="evenodd"/><defs><linearGradient id="g1dcc71fafc4_0_0.2" gradientUnits="userSpaceOnUse" gradientTransform="matrix(-10.298035458901348 0.584373717710177 0.584373717710177 10.298035458901348 0.0 0.0)" spreadMethod="pad" x1="0.34035443647206887" y1="10.557955316064174" x2="-9.957681022159443" y2="10.557880766720913"><stop offset="0.0" stop-color="#FFFFFF"/><stop offset="1.0" stop-color="#FFFFFF"/></linearGradient></defs><path fill="url(#g1dcc71fafc4_0_0.2)" d="m11.144451 162.83968l0 0c35.750713 -0.9534149 69.558014 -7.7930756 87.12094 -17.625717c17.562912 -9.832626 15.812973 -20.940346 -4.509575 -28.624413c-20.322548 -7.6840744 -55.66709 -10.601997 -91.082375 -7.5194473z" fill-rule="evenodd"/></g></svg>