<svg version="1.1" viewBox="0.0 0.0 264.56692913385825 264.56692913385825" fill="none" stroke="none" stroke-linecap="square" stroke-miterlimit="10" xmlns:xlink="http://www.w3.org/1999/xlink" xmlns="http://www.w3.org/2000/svg"><clipPath id="g1dd05a5e227_0_6.0"><path d="m0 0l264.56693 0l0 264.56693l-264.56693 0l0 -264.56693z" clip-rule="nonzero"/></clipPath><g clip-path="url(#g1dd05a5e227_0_6.0)"><path fill="#ffffff00" d="m0 0l264.56693 0l0 264.56693l-264.56693 0z" fill-rule="evenodd"/><path fill="#0396a6" d="m258.15112 116.19588l0 0c-12.344543 -14.797195 -51.011353 -18.184937 -86.36473 -7.5667267q-32.00647 9.612984 -64.01294 19.225967q11.175888 13.396347 22.351776 26.792694l0 0c12.344543 14.797195 51.011353 18.184937 86.36473 7.5667267l0 0c35.353363 -10.61821 54.005707 -31.221466 41.661163 -46.01866z" fill-rule="evenodd"/><path fill="#0396a6" d="m11.144451 162.83968l0 0c35.750713 -0.9534149 69.558014 -7.7930756 87.12094 -17.625717c17.562912 -9.832626 15.812973 -20.940346 -4.509575 -28.624413c-20.322548 -7.6840744 -55.66709 -10.601997 -91.082375 -7.5194473z" fill-rule="evenodd"/></g></svg>